<?xml version="1.0" standalone="no"?>
<!DOCTYPE svg PUBLIC "-//W3C//DTD SVG 20010904//EN"
 "http://www.w3.org/TR/2001/REC-SVG-20010904/DTD/svg10.dtd">
<svg version="1.0" xmlns="http://www.w3.org/2000/svg"
 width="2000.000000pt" height="2000.000000pt" viewBox="0 0 2000.000000 2000.000000"
 preserveAspectRatio="xMidYMid meet">

<g transform="translate(0.000000,2000.000000) scale(0.100000,-0.100000)"
fill="#000000" stroke="none">
<path d="M9189 15285 c-153 -29 -259 -76 -521 -233 -93 -55 -196 -110 -230
-121 -99 -34 -201 -37 -353 -11 -206 35 -343 19 -513 -61 -113 -52 -198 -115
-313 -229 -154 -152 -241 -278 -463 -664 -183 -318 -245 -408 -372 -537 -79
-81 -130 -109 -259 -144 -352 -95 -799 -305 -1157 -545 -573 -385 -1218 -1044
-1680 -1720 -165 -241 -345 -545 -470 -795 -157 -311 -359 -781 -414 -962 -34
-114 -53 -149 -134 -258 -518 -694 -557 -1443 -116 -2219 177 -311 356 -548
590 -781 758 -754 1821 -1084 3006 -934 277 35 582 97 948 194 118 31 139 34
180 24 76 -16 178 -73 317 -174 205 -149 327 -229 434 -284 251 -129 482 -162
686 -97 125 40 195 87 350 237 77 75 167 153 199 174 32 20 139 70 238 110
199 81 263 117 344 188 228 204 266 508 91 727 -28 35 -34 47 -24 56 7 7 122
51 257 99 135 48 398 142 585 210 546 197 574 207 585 200 5 -3 10 -16 10 -29
0 -13 9 -58 20 -102 71 -281 325 -533 630 -624 211 -63 411 -65 605 -8 88 25
691 298 765 346 236 151 350 486 255 753 -14 41 -28 82 -32 92 -9 28 26 21
160 -29 140 -54 286 -124 399 -195 217 -134 619 -444 863 -664 238 -215 416
-355 630 -494 175 -114 337 -166 556 -178 336 -18 679 83 999 294 700 463
1140 1218 1252 2148 19 163 16 663 -5 835 -55 432 -194 892 -373 1227 -310
581 -830 986 -1385 1079 -128 21 -302 15 -404 -15 -38 -11 -169 -63 -290 -116
-378 -167 -617 -256 -895 -334 -192 -55 -399 -96 -412 -83 -7 7 -1 30 21 74
87 179 81 373 -19 573 -103 206 -484 667 -670 810 -303 233 -723 267 -1109 89
-245 -113 -482 -347 -571 -565 -17 -41 -35 -78 -40 -83 -5 -5 -100 56 -222
141 -261 184 -591 407 -796 538 l-154 99 6 34 c14 88 128 217 271 308 257 164
351 231 430 306 158 148 258 309 307 489 29 110 32 305 4 424 -50 218 -173
419 -392 639 -273 274 -618 485 -921 563 -55 14 -114 17 -303 18 l-235 1 -150
77 c-93 48 -180 85 -230 98 -104 27 -266 33 -366 14z m187 -425 c45 -11 149
-54 244 -100 92 -44 194 -86 231 -95 36 -8 155 -19 265 -25 268 -14 396 -43
590 -134 147 -70 258 -149 384 -276 161 -160 254 -308 325 -514 55 -162 87
-423 68 -561 -8 -59 -8 -59 -93 -132 -79 -68 -146 -115 -385 -268 l-89 -57
-84 11 c-108 15 -235 53 -347 102 -49 22 -96 43 -104 48 -10 6 12 34 88 110
155 157 276 324 390 542 65 124 154 334 149 351 -2 5 -21 -17 -43 -49 -180
-263 -487 -588 -738 -782 l-57 -43 -47 38 c-67 53 -143 125 -273 258 l-112
115 16 72 c61 265 70 591 24 891 -11 76 -28 97 -28 35 0 -55 -47 -357 -75
-482 -32 -141 -93 -356 -105 -369 -4 -4 -39 10 -77 32 -140 81 -351 148 -546
173 -66 9 -90 16 -94 28 -59 172 -177 409 -289 577 -91 137 -114 160 -84 83
71 -179 190 -586 190 -650 0 -17 -8 -19 -72 -19 -95 0 -258 -15 -437 -41 -79
-11 -147 -17 -151 -12 -4 4 -33 43 -65 86 -124 167 -285 331 -468 475 -87 69
-125 93 -111 70 4 -7 44 -58 87 -113 133 -168 368 -537 352 -553 -4 -4 -84 -9
-178 -10 -126 -3 -197 0 -266 12 -160 28 -322 99 -421 185 l-41 36 71 125 c39
69 114 190 167 269 l97 144 71 32 c112 51 250 94 375 116 104 19 140 20 375
14 348 -8 375 -2 611 130 162 91 271 131 404 148 67 9 227 -3 306 -23z m-1141
-1800 c199 -19 404 -68 740 -177 323 -104 376 -153 495 -453 152 -380 209
-583 217 -760 6 -132 -7 -201 -57 -301 -56 -110 -136 -169 -231 -169 -50 0
-131 42 -167 85 -30 37 -45 66 -132 248 -180 379 -530 711 -1089 1033 -84 49
-175 108 -201 132 -86 75 -112 170 -69 242 27 43 41 55 105 86 87 41 202 51
389 34z m-2224 -124 c517 -110 1009 -339 1409 -656 130 -102 409 -381 514
-513 221 -277 449 -653 620 -1022 415 -896 610 -1854 593 -2909 -9 -556 -72
-956 -223 -1419 -92 -281 -121 -339 -184 -372 -30 -16 -657 -240 -1008 -361
-226 -78 -282 -93 -282 -78 0 3 41 80 91 171 290 522 517 1230 594 1845 56
454 36 1037 -51 1493 -135 699 -409 1305 -828 1830 -106 132 -353 379 -494
493 -398 322 -814 537 -1268 653 -221 56 -550 109 -769 124 -143 9 -175 15
-175 30 0 27 321 282 530 422 183 121 441 268 520 294 47 16 288 1 411 -25z
m3943 -274 c286 -146 462 -246 726 -411 422 -263 1322 -882 1328 -912 1 -8
-77 -186 -174 -395 -454 -976 -613 -1380 -745 -1894 -22 -85 -45 -172 -50
-194 -13 -48 -25 -38 -44 35 -25 97 -38 247 -31 348 9 135 28 237 92 492 75
304 87 380 87 539 -1 106 -5 152 -22 215 -112 420 -475 626 -885 504 -37 -11
-74 -18 -81 -15 -8 3 -15 36 -19 93 -25 317 -69 609 -131 859 -64 258 -193
603 -292 781 -30 55 -36 83 -16 83 3 0 119 -58 257 -128z m2936 -623 c169 -24
344 -101 450 -197 35 -31 110 -115 168 -187 151 -185 205 -235 394 -363 219
-148 292 -228 365 -397 l21 -50 -30 -57 c-17 -32 -36 -58 -42 -59 -129 -11
-545 66 -829 152 -111 34 -108 26 -52 124 67 118 155 206 273 272 36 20 61 38
55 40 -26 9 -165 -30 -241 -67 -96 -48 -181 -116 -253 -203 -29 -34 -57 -63
-63 -65 -29 -7 -270 124 -440 240 -14 10 73 181 129 250 51 65 132 132 215
178 l55 31 -63 -5 c-136 -12 -283 -96 -413 -234 l-81 -87 -30 35 c-117 136
-248 358 -248 421 0 31 78 108 183 184 66 46 73 48 155 56 96 8 208 3 322 -12z
m-7569 -154 c339 -60 768 -265 1071 -512 99 -81 397 -354 474 -434 181 -189
240 -314 176 -372 -53 -49 -181 -63 -334 -37 -96 16 -292 9 -401 -14 -43 -10
-140 -35 -215 -57 -325 -96 -397 -111 -553 -116 -235 -9 -332 21 -656 205
-292 166 -359 188 -683 227 -214 26 -347 54 -387 80 -77 51 -82 150 -14 291
59 124 133 226 243 335 328 328 824 484 1279 404z m10864 -836 c55 -56 171
-146 355 -272 179 -123 242 -176 364 -307 399 -430 658 -974 753 -1580 22
-146 25 -615 5 -755 -52 -344 -134 -598 -303 -936 -369 -739 -779 -1210 -1254
-1441 l-109 -53 -101 1 c-222 3 -424 64 -603 182 l-54 36 28 7 c16 3 65 12
109 19 152 23 350 96 500 185 353 207 652 569 876 1057 170 371 283 779 325
1168 20 192 15 589 -11 745 -86 538 -273 931 -599 1258 -164 165 -368 320
-686 523 l-115 73 76 35 c114 53 232 81 389 95 9 0 34 -17 55 -40z m-5851
-234 c96 -20 193 -80 291 -179 90 -92 135 -162 172 -267 68 -195 45 -384 -94
-773 -113 -317 -143 -474 -123 -638 21 -178 76 -305 272 -632 66 -110 133
-226 149 -257 136 -270 155 -500 56 -684 l-32 -60 -60 -8 c-73 -10 -214 -1
-266 17 -76 26 -205 132 -399 326 -192 191 -374 389 -367 397 2 2 44 -6 93
-17 102 -24 400 -75 489 -84 33 -4 72 -9 88 -12 68 -14 12 9 -165 66 -208 67
-412 144 -576 217 l-102 46 -49 81 c-59 98 -90 160 -124 246 -45 116 -48 106
40 125 193 43 408 139 549 245 89 67 166 135 144 127 -8 -3 -60 -24 -115 -47
-161 -67 -388 -119 -631 -146 -61 -6 -61 -6 -68 22 -4 16 -9 135 -13 264 l-6
235 99 95 c189 181 376 317 585 424 68 35 150 72 182 82 59 18 78 37 30 29
-131 -20 -185 -33 -299 -70 -185 -60 -407 -175 -535 -276 -20 -16 -40 -29 -43
-29 -3 0 -4 17 -1 38 28 210 40 283 65 382 37 148 81 273 136 382 35 70 55 96
108 141 87 74 184 143 260 184 57 31 66 33 126 28 36 -3 96 -12 134 -20z
m2057 -18 c260 -98 461 -246 528 -387 79 -167 66 -324 -59 -705 -70 -214 -120
-402 -161 -603 -26 -129 -31 -180 -39 -415 -6 -147 -15 -298 -20 -335 -13 -80
-53 -172 -74 -172 -27 0 -87 62 -116 119 -41 82 -66 175 -95 351 -53 321 -100
460 -280 830 -198 408 -232 521 -222 750 6 150 30 248 92 375 63 131 117 187
205 216 43 15 173 2 241 -24z m2239 -227 c0 -5 -25 -48 -55 -94 -188 -292
-358 -676 -460 -1041 -146 -523 -214 -1202 -175 -1765 10 -145 67 -685 75
-707 2 -6 -2 -17 -10 -23 -10 -8 -35 4 -106 50 -204 134 -507 264 -765 330
-128 32 -152 45 -181 97 -50 90 -58 143 -57 378 2 597 181 1679 394 2378 62
207 87 262 137 310 56 54 87 60 202 40 71 -12 157 -17 326 -17 237 0 355 11
540 53 93 22 135 25 135 11z m-10375 -68 c113 -38 197 -86 276 -159 353 -328
373 -957 43 -1425 -157 -223 -370 -379 -619 -455 -82 -24 -105 -27 -250 -27
-147 0 -166 2 -240 27 -265 88 -452 300 -531 602 -23 86 -27 121 -27 250 0
107 5 173 17 230 84 383 322 712 639 880 168 90 276 116 467 111 120 -3 145
-6 225 -34z m11740 -152 c-11 -5 -94 -28 -185 -50 -493 -122 -1035 -305 -1367
-461 -57 -26 -103 -44 -103 -39 0 10 96 238 108 257 9 14 249 87 447 137 365
91 787 155 1080 164 32 0 36 -1 20 -8z m-9495 -620 c346 -88 579 -333 672
-707 30 -119 32 -385 4 -513 -153 -705 -847 -1169 -1451 -969 -323 107 -559
407 -615 779 -84 564 298 1191 840 1380 168 58 391 71 550 30z m9608 -256 c51
-4 92 -10 92 -14 0 -3 -62 -12 -137 -19 -645 -57 -1379 -197 -1796 -341 -131
-45 -138 -47 -134 -26 3 11 15 69 27 128 l22 107 52 10 c369 75 823 134 1176
154 112 7 610 7 698 1z m-13663 -638 c152 -64 229 -205 176 -321 -21 -46 -92
-115 -148 -143 -100 -51 -316 -88 -396 -68 -25 6 -25 7 -12 48 43 142 136 342
220 474 l34 52 43 -13 c24 -7 61 -20 83 -29z m12125 -61 c550 -14 1269 -69
1685 -131 94 -13 175 -26 180 -29 6 -2 -138 -4 -320 -4 -656 -2 -1397 -43
-1892 -105 -95 -12 -173 -19 -173 -16 0 19 32 278 35 288 4 10 33 12 132 8 71
-3 229 -8 353 -11z m-10254 -609 c270 -74 515 -230 585 -371 27 -55 30 -71 25
-110 -19 -122 -161 -190 -396 -188 -196 2 -341 54 -458 167 -201 191 -272 417
-156 493 76 49 239 53 400 9z m9795 -77 c61 -31 227 -94 359 -137 438 -143
921 -218 1465 -229 168 -3 280 -9 267 -14 -42 -16 -228 -48 -377 -65 -208 -25
-699 -25 -950 0 -350 34 -808 99 -832 119 -10 7 -13 56 -13 184 l0 174 23 -7
c12 -3 38 -15 58 -25z m-3911 -682 c102 -51 230 -108 285 -126 145 -47 318
-74 433 -68 87 4 94 3 106 -17 22 -37 90 -286 80 -295 -11 -11 -820 -301 -839
-301 -27 0 -108 208 -174 450 -45 165 -95 450 -78 450 1 0 86 -42 187 -93z
m3977 17 c443 -263 1094 -487 1698 -586 l140 -23 -180 -3 c-333 -6 -677 40
-1110 149 -167 42 -399 108 -545 156 l-85 28 -7 55 c-5 30 -14 110 -21 177
l-13 123 22 -15 c12 -8 57 -35 101 -61z m-6772 -72 c181 -58 280 -152 279
-267 -1 -155 -184 -278 -438 -292 -336 -19 -601 176 -506 373 43 88 149 158
295 196 92 24 282 19 370 -10z m-4079 -92 c251 -65 445 -239 471 -425 l5 -43
-68 -36 c-38 -20 -91 -53 -118 -72 -42 -31 -47 -38 -34 -50 13 -13 30 -8 134
39 154 70 253 103 355 117 200 27 438 -39 611 -170 94 -71 207 -226 182 -249
-5 -5 -52 -22 -104 -40 -435 -142 -851 -128 -1195 39 -127 62 -203 116 -311
224 -92 91 -106 111 -152 206 -64 133 -82 206 -89 352 -7 136 -18 125 133 127
72 1 124 -5 180 -19z m9663 -214 c35 -9 87 -26 116 -37 61 -23 70 -40 81 -144
6 -62 6 -65 -31 -115 -99 -135 -256 -209 -445 -210 -108 -1 -207 -17 -266 -44
-28 -13 -100 -56 -159 -96 -59 -40 -131 -83 -159 -96 -140 -63 -364 -55 -601
22 -107 35 -201 84 -290 149 -70 52 -74 58 -86 110 -7 30 -10 57 -8 59 2 2 51
22 108 45 76 31 126 45 190 52 144 15 135 17 161 -50 12 -33 48 -99 80 -148
64 -97 116 -162 104 -128 -52 144 -75 221 -81 275 l-8 65 84 17 c52 10 122 35
182 64 l99 47 67 -64 c38 -36 91 -81 118 -100 51 -36 165 -103 165 -97 0 2
-27 32 -60 67 -91 95 -181 234 -163 252 15 15 187 76 264 94 l76 18 34 -26
c75 -57 313 -147 388 -147 20 0 10 9 -49 41 -103 56 -205 133 -196 148 7 11
221 -6 285 -23z m-3434 -989 l36 -72 -65 -100 c-173 -268 -178 -272 -471 -321
-274 -46 -305 -64 -575 -335 -218 -219 -261 -250 -390 -284 -122 -33 -306 -13
-475 50 -59 21 -279 165 -327 213 -12 12 76 41 272 91 l115 29 55 -53 c30 -29
81 -70 114 -90 60 -38 166 -89 166 -80 0 3 -20 30 -45 61 -52 63 -121 193
-108 204 4 4 37 17 73 30 85 30 210 93 282 141 l57 39 73 -73 c78 -79 148
-126 134 -91 -31 80 -56 170 -59 211 l-2 48 75 37 c70 35 305 118 334 118 6 0
25 -18 42 -40 25 -36 149 -140 165 -140 4 0 -9 44 -27 98 -19 53 -34 104 -34
112 0 11 36 30 108 58 59 24 179 80 267 126 88 46 163 84 167 85 4 0 23 -32
43 -72z"/>
<path d="M3672 10255 c-335 -76 -613 -450 -612 -824 1 -175 65 -338 178 -450
110 -111 236 -157 397 -148 346 19 645 309 711 689 57 328 -84 618 -351 718
-77 28 -232 36 -323 15z m445 -228 c43 -29 86 -90 108 -152 23 -64 31 -201 16
-248 -18 -54 -72 -97 -122 -97 -74 0 -129 46 -176 145 -25 54 -28 70 -28 170
0 127 15 167 75 198 41 20 80 15 127 -16z m-38 -592 c38 -33 55 -84 48 -146
-15 -127 -118 -216 -208 -178 -97 40 -88 202 17 300 61 57 96 63 143 24z"/>
<path d="M5915 9433 c-272 -42 -504 -239 -618 -525 -42 -104 -57 -183 -57
-303 0 -131 18 -213 66 -310 159 -324 550 -395 879 -160 159 113 288 314 331
514 21 99 18 272 -6 365 -51 199 -187 346 -368 400 -57 17 -179 27 -227 19z
m370 -236 c78 -44 132 -157 141 -297 5 -65 2 -81 -18 -120 -32 -62 -81 -94
-133 -85 -107 17 -187 149 -189 310 -2 178 81 259 199 192z m-21 -606 c66 -69
50 -206 -33 -285 -42 -40 -116 -48 -160 -17 -78 56 -54 202 48 294 54 48 104
51 145 8z"/>
</g>
</svg>
